<?xml version="1.0" encoding="UTF-8"?>
<svg width="32px" height="32px" viewBox="0 0 32 32" version="1.1" xmlns="http://www.w3.org/2000/svg" xmlns:xlink="http://www.w3.org/1999/xlink">
    <!-- Generator: Sketch 52.5 (67469) - http://www.bohemiancoding.com/sketch -->
    <title>a</title>
    <desc>Created with Sketch.</desc>
    <g id="a" stroke="none" stroke-width="1" fill="none" fill-rule="evenodd">
        <g id="facebook-icon" transform="translate(11.000000, 7.000000)" fill="#3D69AF">
            <path d="M0.7,6 L2.5,6 L2.5,4.2 C2.5,3.4 2.5,2.2 3.1,1.4 C3.7,0.7 4.6,0.1 6,0.1 C8.3,0.1 9.3,0.4 9.3,0.4 L8.8,3.1 C8.8,3.1 8,2.9 7.3,2.9 C6.6,2.9 6,3.2 6,3.9 L6,6 L8.9,6 L8.7,8.7 L6,8.7 L6,17.9 L2.5,17.9 L2.5,8.7 L0.7,8.7 L0.7,6 Z" id="Path"></path>
        </g>
    </g>
</svg>