<?xml version="1.0" encoding="UTF-8"?>
<svg width="40px" height="40px" viewBox="0 0 40 40" version="1.1" xmlns="http://www.w3.org/2000/svg" xmlns:xlink="http://www.w3.org/1999/xlink">
    <!-- Generator: Sketch 52.5 (67469) - http://www.bohemiancoding.com/sketch -->
    <title>Artboard</title>
    <desc>Created with Sketch.</desc>
    <g id="Artboard" stroke="none" stroke-width="1" fill="none" fill-rule="evenodd" stroke-linecap="round">
        <g id="Group-2" transform="translate(6.000000, 10.000000)" fill-rule="nonzero">
            <g id="Group" transform="translate(0.000000, 4.000000)" stroke="#212121" stroke-width="2">
                <path d="M-5.68434189e-13,12 L2,12 C12,12 10,-2.84217094e-13 20,-2.84217094e-13 L28,-2.84217094e-13" id="Path" transform="translate(14.000000, 6.000000) scale(1, -1) translate(-14.000000, -6.000000) "></path>
                <polyline id="Path-2" stroke-linejoin="round" transform="translate(26.000000, 12.000000) scale(1, -1) translate(-26.000000, -12.000000) " points="24 16 28 12 24 8"></polyline>
            </g>
            <g id="Group">
                <path d="M-5.68434189e-13,16 L2,16 C12,16 10,4 20,4 L28,4" id="Path" stroke="#FFFE00" stroke-width="6"></path>
                <path d="M-5.68434189e-13,16 L2,16 C12,16 10,4 20,4 L28,4" id="Path" stroke="#212121" stroke-width="2"></path>
                <polyline id="Path-2" stroke="#212121" stroke-width="2" stroke-linejoin="round" points="24 8 28 4 24 1.70308212e-13"></polyline>
            </g>
        </g>
    </g>
</svg>