<?xml version="1.0" encoding="UTF-8"?>
<svg width="32px" height="32px" viewBox="0 0 32 32" version="1.1" xmlns="http://www.w3.org/2000/svg" xmlns:xlink="http://www.w3.org/1999/xlink">
    <!-- Generator: Sketch 52.5 (67469) - http://www.bohemiancoding.com/sketch -->
    <title>Artboard</title>
    <desc>Created with Sketch.</desc>
    <g id="Artboard" stroke="none" stroke-width="1" fill="none" fill-rule="evenodd">
        <g id="twitter-icon" transform="translate(6.000000, 8.000000)" fill="#00AEEE">
            <path d="M19.5,2.1 C18.8,2.4 18,2.6 17.3,2.7 C18.1,2.2 18.7,1.5 19,0.5 C18.2,0.9 17.4,1.3 16.5,1.4 C15.8,0.6 14.8,0.2 13.7,0.2 C11.5,0.2 9.8,1.9 9.8,4.1 C9.8,4.4 9.8,4.7 9.9,5 C6.6,4.9 3.7,3.3 1.8,1 C1.5,1.6 1.3,2.2 1.3,3 C1.3,4.3 2,5.5 3,6.2 C2.4,6.2 1.8,6 1.3,5.7 C1.3,7.6 2.6,9.2 4.4,9.5 C4.1,9.6 3.7,9.6 3.4,9.6 C3.1,9.6 2.9,9.6 2.7,9.5 C3.2,11 4.6,12.2 6.3,12.2 C5,13.2 3.3,13.9 1.5,13.9 C1.2,13.9 0.9,13.9 0.6,13.8 C2.3,14.9 4.4,15.6 6.6,15.6 C13.8,15.6 17.7,9.7 17.7,4.5 L17.7,4 C18.3,3.6 19,2.9 19.5,2.1" id="Path"></path>
        </g>
    </g>
</svg>